<svg version="1.2" xmlns="http://www.w3.org/2000/svg" viewBox="0 0 176 178" width="176" height="178"><style>.a{fill:#4ac7f0}.b{fill:#d9d9d9}.c{fill:#fff}</style><path class="a" d="m76 0c1.9 0 3.9 0.9 5.5 2.5 1.4 1.4 2.5 3.6 2.5 5 0 1.4-1.1 3.6-2.5 5-1.3 1.4-3.1 2.5-4 2.5-0.8 0-2 1-2.6 2.2-0.7 1.3-12.1 21.3-25.5 44.5-17.1 29.6-24.4 43.2-24.4 45.3 0 1.8-0.9 4-2.5 5.5-1.4 1.5-3.5 2.5-5.2 2.5-1.5 0-3.8-1-5.1-2.3-1.4-1.4-2.2-3.4-2.2-5.5 0-2 0.8-3.9 2.2-5.2 1.3-1.1 3-2 3.8-2 0.9 0 11.1-16.6 27-44.1 14.5-25.1 25.5-45.3 25.6-46.8 0-1.4 0.1-3.2 0.2-3.9 0.1-0.6 1.1-2.1 2.2-3.2 1.1-1.1 3.3-2 5-2zm24.7 0c0.5 0 1.3 0.4 1.9 0.8 0.6 0.4 3.7 5.2 7 10.6 3.5 5.9 6.8 10.2 8.1 10.7 1.3 0.5 3 1.9 3.8 3.1 0.8 1.3 1.5 3.1 1.5 4 0 1-1 3-2.3 4.4q-2.2 2.7-5.4 2.8c-2.2 0.1-4-0.7-5.5-2.2-1.6-1.6-2.3-3.3-2.2-6 0.1-2.6-0.9-5.5-6.9-15.7l-3.3 6c-1.9 3.3-13.9 24.2-26.7 46.5-12.9 22.3-23.2 40.8-23 41.2 0.1 0.5 11 0.8 24 0.8 20.5 0.1 24-0.1 25.3-1.5 0.9-0.9 3.1-1.6 5.2-1.5 2.8 0 4.2 0.6 5.3 2.2 0.8 1.3 1.5 3.6 1.5 5.3 0.1 1.6-0.7 3.7-1.7 4.6-1 0.9-2.7 1.9-3.8 2.3-1.2 0.3-3.7-0.2-6-1.4-3.7-1.9-5.9-2-32-2-21.3 0-28.3-0.3-29.3-1.2-0.7-0.7-1.2-1.9-1.2-2.6 0-0.6 13.8-25.2 30.7-54.5 17-29.2 31.6-54 32.5-55 1-0.9 2.1-1.7 2.5-1.7zm-91 145c4 0 5.8 0.5 7.3 2 1.8 1.8 2 3.3 2 30h-7v-5c0-4.7-0.2-5-2.5-5-2.3 0-2.5 0.3-2.5 10h-7l0.2-14.6c0.3-13.2 0.5-14.7 2.3-16 1.1-0.8 4.3-1.4 7.2-1.4zm145.3 0.4c2.5 0.3 5.2 0.6 6 0.6 0.8 0 3.5-0.3 6-0.6 3.1-0.4 5.1-0.1 6.5 1 1.8 1.3 2 2.8 2.5 30.6h-7v-13.5c0-13.4 0-13.5-2.3-13.3-2.1 0.3-2.2 0.6-2.7 26.8h-6l-0.3-13.3c-0.2-12.9-0.3-13.2-2.5-13.5-2.2-0.2-2.2-0.1-2.2 26.8h-7l0.2-14.6c0.3-13.2 0.5-14.7 2.3-16 1.4-1.1 3.4-1.4 6.5-1zm-131.9 0.5l8.2 0.3c7.5 0.3 8.2 0.5 9.5 2.8 0.9 1.7 1.2 6 1 13.8-0.3 10-0.5 11.5-2.3 12.8-1.3 0.9-4.5 1.4-16.5 1.4v-15.5zm23 0h7v25h3.5c3.2 0 3.5 0.3 3.5 6h-14v-15.5zm17 0h6v31h-6v-15.5zm11 0h7.5c6.6 0 7.6 0.3 9 2.3 0.8 1.2 1.5 3.5 1.5 5 0 1.5-0.5 3.8-1.1 5-0.8 1.6-0.8 2.5 0 3.2 0.6 0.6 1.1 3.5 1.1 6.5-0.1 3.8-0.6 6.1-1.8 7.3-1.4 1.4-3.3 1.8-16.2 1.7v-15.5zm22 0h7v31h-7v-15.5zm17.5 0c8.4 0 8.5 0.1 8.5 2.5 0 1.9-0.6 2.6-2.3 2.8-2.2 0.2-2.2 0.6-2.7 25.7h-7v-26h-2.5c-2 0-2.5-0.5-2.5-2.5 0-2.4 0.1-2.5 8.5-2.5zm11.5 0h5.9l0.3 13.3c0.2 12.5 0.4 13.2 2.3 13.2 1.8 0 2-0.7 2.4-26.5h7.1v13.3c0 11.7-0.2 13.5-1.9 15.7-1.7 2.2-2.8 2.5-7.4 2.5-3.4 0-6.1-0.5-7.1-1.5-1.5-1.2-1.7-3.5-1.7-15.7z"/><path class="b" d="m110.6 50c17.7 0 18.5 0.1 20.7 2.2 1.2 1.3 9.6 14.6 18.5 29.5 11.9 20.1 16.1 28 15.7 32.8l-18.5 0.3c-16.4 0.3-18.7 0.1-20-1.4-0.8-0.9-4.7-7.1-15.5-25.9l-41.5-1 10.1-17c5.5-9.4 10.5-17.6 11.1-18.3 0.7-0.9 5.9-1.2 19.4-1.2z"/><path class="c" d="m76.4 5.2c1.3 0.2 2.1 1 2.1 2.3 0 1.2-0.8 2.1-2 2.3-1.1 0.2-2.3-0.2-2.7-1-0.3-0.7-0.4-1.9-0.1-2.6 0.3-0.7 1.5-1.2 2.7-1zm38.5 20.8c0.3 0 1.2 0.5 1.9 1.2 0.7 0.7 1.2 1.9 1.2 2.5 0 0.7-0.8 1.5-1.8 1.8-0.9 0.3-2.4-0.1-3.2-0.9-1.3-1.3-1.3-1.7-0.1-3.1 0.7-0.8 1.6-1.5 2-1.5zm-97.6 79.2c1.4 0.2 2.3 1.1 2.4 2.5 0.2 1.8-0.2 2.3-2.2 2.3-2 0-2.5-0.5-2.4-2.6 0-2 0.5-2.5 2.2-2.2zm84.7 2.8c0.3 0 1.2 0.6 2 1.5 1.3 1.4 1.3 1.8-0.2 3.3-1.1 1-2.3 1.4-3.3 0.9-0.8-0.4-1.6-1.6-1.7-2.6-0.1-1.1 0.5-2.2 1.2-2.4 0.8-0.3 1.7-0.6 2-0.7zm-92.5 42c2.4 0 2.5 0.3 2.5 5.5 0 5.2-0.1 5.5-2.5 5.5-2.4 0-2.5-0.3-2.5-5.5 0-5.2 0.1-5.5 2.5-5.5zm22.8 0.2c2.1 0.3 2.2 0.9 2.7 21.8h-5l0.1-11.1c0.1-10.7 0.1-11 2.2-10.7zm50.5 0c1.3 0.2 1.7 1.4 1.7 4.3 0 3.3-0.3 4-2 4-1.5 0-2.1-0.8-2.3-3-0.2-1.7 0-3.6 0.3-4.3 0.3-0.8 1.4-1.2 2.3-1zm0.4 12.8c1.5 0 1.8 0.8 1.8 4.5 0 4.1-0.2 4.5-2.5 4.5-2.2 0-2.5-0.5-2.7-3.8-0.1-2.1 0.2-4.2 0.7-4.5 0.5-0.4 1.7-0.7 2.7-0.7z"/></svg>